PathFileType	4	(X/Y/Z)	8_coords_data.trc
DataRate	CameraRate	NumFrames	NumMarkers	Units	OrigDataRate	OrigDataStartFrame	OrigNumFrames
30.0	30.0	6	21	m	30.0	12	55
Frame#	Time	THUMB_TIP	THUMB_IP	THUMB_MCP	THUMB_CMC	INDEX_TIP	INDEX_DIP	INDEX_PIP	INDEX_MCP	MIDDLE_TIP	MIDDLE_DIP	MIDDLE_PIP	MIDDLE_MCP	RING_TIP	RING_DIP	RING_PIP	RING_MCP	PINKY_TIP	PINKY_DIP	PINKY_PIP	PINKY_MCP	WRIST
X1	Y1	Z1	X2	Y2	Z2	X3	Y3	Z3	X4	Y4	Z4	X5	Y5	Z5	X6	Y6	Z6	X7	Y7	Z7	X8	Y8	Z8	X9	Y9	Z9	X10	Y10	Z10	X11	Y11	Z11	X12	Y12	Z12	X13	Y13	Z13	X14	Y14	Z14	X15	Y15	Z15	X16	Y16	Z16	X17	Y17	Z17	X18	Y18	Z18	X19	Y19	Z19	X20	Y20	Z20	X21	Y21	Z21
11	0.36666666666666664	0.0038791201114654543	-0.02767550086975098	0.9887360229492187	-0.002905770063400268	-0.03690670013427735	1.011969970703125	-0.01186870002746582	-0.03185659980773926	1.036300048828125	-0.020886800765991212	-0.007502960205078125	1.053050048828125	0.005371600151062012	-0.02383250045776367	0.9487230224609375	-0.01407800006866455	-0.026607500076293946	0.954697998046875	-0.0326619987487793	-0.028636199951171875	0.9661069946289063	-0.04002539825439453	-0.02544890022277832	1.0031699829101564	0.00613185977935791	-0.0034968900680541993	0.9343980102539062	-0.013663000106811523	-0.004359270095825195	0.9451220092773438	-0.03532120132446289	-0.005057869911193847	0.9606500244140626	-0.044715301513671875	-0.004429979801177978	0.999635009765625	0.0068937897682189945	0.016510599136352538	0.9428270263671875	-0.012383399963378906	0.01755900001525879	0.952916015625	-0.03304010009765625	0.017359699249267578	0.9676209716796875	-0.041863700866699216	0.014488300323486329	1.002	0.000768423020839691	0.038294700622558596	0.9624860229492187	-0.015488100051879884	0.03798949813842773	0.9719929809570312	-0.028686599731445314	0.036308399200439455	0.9832520141601563	-0.03580229949951172	0.03145759963989258	1.0078699951171874	-0.044930999755859374	0.016140100479125976	1.0721199951171876
12	0.4	0.003658560037612915	-0.02789929962158203	0.9888460083007813	-0.003148489952087402	-0.037142101287841796	1.0121400146484374	-0.012206100463867187	-0.032036701202392576	1.036489990234375	-0.021017499923706055	-0.00767834997177124	1.053260009765625	0.004567379951477051	-0.024128700256347658	0.9485349731445313	-0.014800900459289551	-0.026870500564575194	0.9546320190429688	-0.033320701599121094	-0.028850099563598634	0.9661829833984374	-0.04017359924316406	-0.025652299880981444	1.0033900146484376	0.006118919849395752	-0.003723099946975708	0.934708984375	-0.013660599708557129	-0.004634160041809082	0.9453280029296875	-0.03540359878540039	-0.005303880214691162	0.9608289794921875	-0.04476470184326172	-0.00463355016708374	0.9998410034179688	0.0069007201194763185	0.01620919990539551	0.9429970092773438	-0.012401000022888183	0.01724810028076172	0.9531279907226563	-0.03311690139770508	0.01708799934387207	0.9677830200195312	-0.04194269943237305	0.014253399848937988	1.002219970703125	0.000615275979042053	0.03800040054321289	0.96247998046875	-0.015578800201416016	0.037717601776123044	0.9720960083007812	-0.028773199081420897	0.0360536003112793	0.9833709716796875	-0.03585070037841797	0.031234500885009765	1.0079500122070313	-0.045052600860595704	0.01600950050354004	1.0723199462890625
13	0.43333333333333335	0.003804219961166382	-0.027993600845336915	0.989030029296875	-0.0031230800151824953	-0.037220600128173825	1.0123499755859375	-0.012064299583435058	-0.03222829818725586	1.0365699462890625	-0.021058000564575196	-0.00782636022567749	1.0533199462890626	0.005900290012359619	-0.02399020004272461	0.9495640258789062	-0.013637200355529785	-0.026758699417114257	0.9552329711914063	-0.03239170074462891	-0.02877470016479492	0.9663610229492188	-0.04010449981689453	-0.02580739974975586	1.0034600219726562	0.006500529766082764	-0.0037856900691986078	0.9349559936523437	-0.013353599548339843	-0.004665929794311524	0.9455150146484375	-0.03513109970092773	-0.005381889820098877	0.9609229736328125	-0.044763900756835937	-0.004765950202941895	0.99985498046875	0.00713060998916626	0.016245399475097656	0.9433040161132813	-0.012193599700927734	0.017272199630737305	0.9532830200195312	-0.032953399658203125	0.017052600860595703	0.9678690185546875	-0.04191749954223633	0.014166600227355957	1.00222998046875	0.0007424690127372741	0.0379734992980957	0.9627880249023437	-0.01551669979095459	0.03769860076904297	0.9722789916992187	-0.028771900177001954	0.035987098693847655	0.9835369873046875	-0.03587599945068359	0.031138200759887696	1.007989990234375	-0.04516849899291992	0.01586079978942871	1.0723399658203125
14	0.4666666666666667	0.003805910110473633	-0.028008100509643554	0.9895089721679687	-0.002999020099639892	-0.03735900115966797	1.012489990234375	-0.011997500419616699	-0.03230690002441406	1.03675	-0.021088699340820312	-0.007867939949035644	1.05352001953125	0.0067953400611877445	-0.02403249931335449	0.9504210205078125	-0.012823699951171875	-0.026798200607299805	0.9558330078125	-0.03177610015869141	-0.02887899971008301	0.9666489868164062	-0.04005179977416992	-0.02588509941101074	1.0036900024414062	0.006574069976806641	-0.003909049987792968	0.9351690063476562	-0.01332610034942627	-0.0048099799156188965	0.9456530151367187	-0.03505640029907227	-0.005523240089416504	0.961093994140625	-0.044732799530029295	-0.0048675498962402345	0.9999569702148438	0.007144680023193359	0.01616790008544922	0.9433880004882812	-0.012168700218200684	0.017133499145507814	0.9534130249023437	-0.032940601348876955	0.01692110061645508	0.9679959716796875	-0.04192259979248047	0.014068400382995606	1.0023400268554687	0.000749378025531768	0.037861198425292966	0.962948974609375	-0.015505499839782715	0.03758420181274414	0.972448974609375	-0.02872760009765625	0.03586410140991211	0.9836669921875	-0.03587250137329102	0.031080400466918946	1.0081799926757813	-0.04521469879150391	0.015800100326538086	1.07256005859375
15	0.5	0.003923749923706054	-0.02817259979248047	0.9895700073242187	-0.003019419908523559	-0.037514198303222654	1.0127100219726564	-0.012010700225830078	-0.03247710037231445	1.03697998046875	-0.021046199798583985	-0.008033679962158204	1.053719970703125	0.006720039844512939	-0.024293800354003907	0.9505230102539063	-0.012889599800109864	-0.02707200050354004	0.9560040283203125	-0.03182469940185547	-0.029115800857543946	0.9668590087890625	-0.040026798248291015	-0.026090299606323242	1.0038099975585937	0.006699319839477539	-0.004122920036315918	0.9353880004882813	-0.013181400299072266	-0.005024940013885498	0.9459580078125	-0.034996601104736326	-0.005728280067443848	0.9612739868164063	-0.04474679946899414	-0.005052509784698486	1.0001500244140624	0.0072077298164367675	0.015911499977111818	0.9436259765625	-0.012086000442504883	0.016900299072265625	0.9536439819335938	-0.03287900161743164	0.016744800567626953	0.9681519775390625	-0.041914398193359376	0.013904500007629394	1.0025599975585937	0.00073742800951004	0.03768220138549805	0.963114990234375	-0.015502300262451172	0.03739260101318359	0.9726400146484375	-0.02871380043029785	0.03569309997558594	0.9838660278320313	-0.03588999938964844	0.03089620018005371	1.008489990234375	-0.04514189910888672	0.015640899658203124	1.072800048828125
16	0.5333333333333333	0.003956170082092285	-0.02834149932861328	0.9897009887695313	-0.0029621200561523427	-0.03763560104370117	1.012969970703125	-0.01194670009613037	-0.03260820007324219	1.037239990234375	-0.02101259994506836	-0.00818336009979248	1.05397998046875	0.006898930072784424	-0.02445560073852539	0.9507210083007812	-0.012744199752807618	-0.027188400268554687	0.9562789916992187	-0.031746200561523434	-0.029242200851440428	0.9670880126953125	-0.03994580078125	-0.02622480010986328	1.00402001953125	0.00685113000869751	-0.004291369915008545	0.9356729736328125	-0.01301490020751953	-0.005159560203552246	0.94618798828125	-0.03482360076904297	-0.005885709762573242	0.9614600219726562	-0.04462459945678711	-0.005199659824371338	1.0003300170898437	0.007382420063018799	0.01577110004425049	0.9438400268554688	-0.011953399658203126	0.016783100128173828	0.9538070068359376	-0.03275899887084961	0.01659339904785156	0.9683179931640625	-0.04179140090942383	0.013730500221252441	1.002719970703125	0.0009039769768714901	0.03751010131835938	0.9633489990234375	-0.015398699760437012	0.03725210189819336	0.9727789916992188	-0.028602500915527344	0.03555870056152344	0.98406298828125	-0.035753200531005856	0.030744199752807618	1.0086400146484376	-0.04512870025634766	0.015489100456237793	1.073
